<svg width="62" height="62" viewBox="0 0 62 62" fill="none" xmlns="http://www.w3.org/2000/svg">
<circle cx="31" cy="31" r="30" stroke="#FF5E51" stroke-width="2"/>
<path d="M34.3465 31.277C34.31 31.2407 34.2811 31.1976 34.2613 31.15C34.2416 31.1025 34.2314 31.0515 34.2314 31C34.2314 30.9485 34.2416 30.8975 34.2613 30.85C34.2811 30.8024 34.31 30.7593 34.3465 30.723L42.0545 22.9983C42.2714 22.7808 42.4435 22.5226 42.5609 22.2384C42.6783 21.9543 42.7387 21.6497 42.7387 21.3421C42.7387 21.0346 42.6783 20.73 42.5609 20.4458C42.4435 20.1617 42.2714 19.9035 42.0545 19.686C41.8376 19.4685 41.5801 19.296 41.2967 19.1783C41.0133 19.0606 40.7095 19 40.4028 19C39.7833 19 39.1891 19.2468 38.7511 19.686L31.0469 27.4107C31.0108 27.4473 30.9677 27.4763 30.9203 27.4961C30.8729 27.5159 30.822 27.5261 30.7707 27.5261C30.7193 27.5261 30.6685 27.5159 30.621 27.4961C30.5736 27.4763 30.5306 27.4473 30.4944 27.4107L22.7903 19.686C22.3522 19.2468 21.7581 19 21.1386 19C20.519 19 19.9249 19.2468 19.4868 19.686C19.0488 20.1252 18.8027 20.721 18.8027 21.3421C18.8027 21.9633 19.0488 22.559 19.4868 22.9983L27.191 30.723C27.2274 30.7593 27.2564 30.8024 27.2761 30.85C27.2959 30.8975 27.3061 30.9485 27.3061 31C27.3061 31.0515 27.2959 31.1025 27.2761 31.15C27.2564 31.1976 27.2274 31.2407 27.191 31.277L19.4868 39.0017C19.0488 39.441 18.8027 40.0367 18.8027 40.6579C18.8027 41.279 19.0488 41.8748 19.4868 42.314C19.9249 42.7532 20.519 43 21.1386 43C21.7581 43 22.3522 42.7532 22.7903 42.314L30.4944 34.5893C30.5306 34.5527 30.5736 34.5237 30.621 34.5039C30.6685 34.4841 30.7193 34.4739 30.7707 34.4739C30.822 34.4739 30.8729 34.4841 30.9203 34.5039C30.9677 34.5237 31.0108 34.5527 31.0469 34.5893L38.7511 42.314C39.1891 42.7532 39.7833 43 40.4028 43C41.0223 43 41.6164 42.7532 42.0545 42.314C42.4926 41.8748 42.7387 41.279 42.7387 40.6579C42.7387 40.0367 42.4926 39.441 42.0545 39.0017L34.3465 31.277Z" fill="#FF5E51"/>
</svg>
