<svg width="62" height="62" viewBox="0 0 62 62" fill="none" xmlns="http://www.w3.org/2000/svg">
<path fill-rule="evenodd" clip-rule="evenodd" d="M31 60C47.0163 60 60 47.0163 60 31C60 14.9837 47.0163 2 31 2C14.9837 2 2 14.9837 2 31C2 47.0163 14.9837 60 31 60ZM31 62C48.1208 62 62 48.1208 62 31C62 13.8792 48.1208 0 31 0C13.8792 0 0 13.8792 0 31C0 48.1208 13.8792 62 31 62Z" fill="#00D387"/>
<path d="M37.2294 19.0142C32.4705 19.0142 30.4593 22.3799 30.4593 22.3799C30.4593 22.3799 28.4481 19 23.6893 19C19.6669 19.0142 16.296 22.3799 16.296 26.3988C16.296 35.6154 30.4593 43 30.4593 43C30.4593 43 44.6226 35.6154 44.6226 26.3988C44.6226 22.3799 41.2518 19.0142 37.2294 19.0142Z" fill="#00D387"/>
</svg>
