<svg width="42" height="42" viewBox="0 0 42 42" fill="none" xmlns="http://www.w3.org/2000/svg">
<circle cx="21" cy="21" r="20" stroke="#07A6FF" stroke-width="2"/>
<g clip-path="url(#clip0_2_13)">
<path d="M29.5223 18.4334L23.9888 17.5881L21.5086 12.3051C21.3233 11.9106 20.6761 11.9106 20.4908 12.3051L18.0113 17.5881L12.4778 18.4334C12.0233 18.5031 11.8418 19.0559 12.1606 19.3821L16.1806 23.5026L15.2303 29.3279C15.1546 29.7906 15.6488 30.1379 16.0576 29.9106L21.0001 27.1791L25.9426 29.9114C26.3476 30.1364 26.8463 29.7959 26.7698 29.3286L25.8196 23.5034L29.8396 19.3829C30.1583 19.0559 29.9761 18.5031 29.5223 18.4334Z" fill="#07A6FF"/>
</g>
<defs>
<clipPath id="clip0_2_13">
<rect width="18" height="18" fill="white" transform="translate(12 12)"/>
</clipPath>
</defs>
</svg>
