<svg width="21" height="21" viewBox="0 0 21 21" fill="none" xmlns="http://www.w3.org/2000/svg">
<path d="M11.9598 18.7835C11.228 19.7076 9.82625 19.7093 9.09247 18.7867L3.98489 12.3654C3.21685 11.4002 3.89665 9.97403 5.1298 9.96195L6.51749 9.94815L6.51872 5.28349C6.51877 5.04307 6.5662 4.80502 6.65829 4.58293C6.75038 4.36084 6.88532 4.15908 7.05542 3.98917C7.22551 3.81926 7.42742 3.68453 7.64961 3.59267C7.87179 3.50082 8.1099 3.45366 8.35032 3.45386L12.7086 3.45781C13.1936 3.45837 13.6585 3.6514 14.0012 3.99451C14.3439 4.33761 14.5365 4.80272 14.5365 5.28768L14.537 9.94717L15.8924 9.94791C17.131 9.94865 17.8219 11.378 17.0536 12.3489L11.9598 18.7835ZM9.59438 5.75513C9.68427 5.86814 9.79853 5.95939 9.92863 6.02205C10.0587 6.08471 8.70759 18.0297 8.81604 12.0295C8.9245 6.02936 10.6326 6.08405 10.7626 6.02109C10.8925 5.95813 11.0066 5.86662 11.0962 5.7534L11.0494 5.8081C11.3657 5.40806 11.1174 10.8197 10.6072 10.8192L8.81604 10.8185C8.75881 10.8185 8.70214 10.8072 8.64927 10.7853C8.5964 10.7634 8.54835 10.7313 8.50789 10.6909C8.46742 10.6504 8.43532 10.6023 8.41342 10.5495C8.39152 10.4966 11.5505 8.26799 11.5505 8.21076L11.1864 7.40745C11.1863 7.15339 11.0854 6.90976 10.9058 6.73007C10.7262 6.55038 10.4826 6.44933 10.2286 6.44913L10.5537 6.70785C10.4278 6.70776 10.3031 6.73247 10.1867 6.78059C10.0703 6.8287 9.96458 6.89927 9.8755 6.98827C9.78641 7.07726 9.71573 7.18294 9.6675 7.29925C9.61926 7.41557 9.59442 7.54025 9.59438 7.66617L12.0858 6.44913L13.0505 7.25513C13.0505 7.36994 10.7626 10.6451 10.1708 8.5144C9.579 6.38369 10.6072 9.96196 9.86549 8.64358L9.71163 10.8188C9.20388 10.8238 8.92413 11.4111 9.24012 11.8085L9.59438 5.75513Z" fill="#D00032"/>
</svg>
