<svg width="21" height="21" viewBox="0 0 21 21" fill="none" xmlns="http://www.w3.org/2000/svg">
<path d="M9.0907 1.9716C9.8225 1.04755 11.2242 1.04582 11.958 1.9684L17.0656 8.38973C17.8336 9.35495 17.1538 10.7811 15.9207 10.7932L14.533 10.807L14.5318 15.4716C14.5317 15.7121 14.4843 15.9501 14.3922 16.1722C14.3001 16.3943 14.1652 16.596 13.9951 16.766C13.825 16.9359 13.6231 17.0706 13.4009 17.1625C13.1787 17.2543 12.9406 17.3015 12.7002 17.3013L8.34189 17.2973C7.85693 17.2968 7.39202 17.1037 7.04929 16.7606C6.70655 16.4175 6.51402 15.9524 6.51398 15.4674L6.51349 10.808L5.15809 10.8072C3.91952 10.8065 3.22863 9.37714 3.99691 8.40625L9.0907 1.9716ZM11.4561 15C11.3662 14.887 11.252 14.7957 11.1219 14.7331C10.9918 14.6704 12.3429 2.72543 12.2344 8.7256C12.126 14.7258 10.4179 14.6711 10.2879 14.734C10.158 14.797 10.0439 14.8885 9.9543 15.0017L10.001 14.947C9.68481 15.3471 9.93305 9.93542 10.4433 9.93591L12.2344 9.93665C12.2917 9.93664 12.3483 9.94791 12.4012 9.9698C12.4541 9.9917 12.5021 10.0238 12.5426 10.0643C12.5831 10.1047 12.6152 10.1528 12.6371 10.2057C12.659 10.2585 9.5 12.4871 9.49999 12.5444L9.8641 13.3477C9.86417 13.6017 9.96509 13.8454 10.1447 14.0251C10.3243 14.2047 10.5679 14.3058 10.8219 14.306L10.4968 14.0473C10.6227 14.0474 10.7474 14.0227 10.8638 13.9745C10.9802 13.9264 11.0859 13.8559 11.175 13.7669C11.2641 13.6779 11.3348 13.5722 11.383 13.4559C11.4312 13.3396 11.4561 13.2149 11.4561 13.089L8.96464 14.306L8 13.5C7.99998 13.3852 10.2879 10.11 10.8797 12.2407C11.4715 14.3714 10.4433 10.7932 11.185 12.1115L11.3389 9.93628C11.8466 9.93135 12.1264 9.34398 11.8104 8.94666L11.4561 15Z" fill="#00AF27"/>
</svg>
